<mxfile host="app.diagrams.net" modified="2023-03-31T11:22:07.182Z" agent="Mozilla/5.0 (X11; Ubuntu; Linux x86_64; rv:109.0) Gecko/20100101 Firefox/111.0" etag="1is4xnfZgvzRq0D2ZqLE" version="21.1.1">
  <diagram name="Página-1" id="9bUULZ5fY3JvXaYJBgqP">
    <mxGraphModel dx="880" dy="413" grid="1" gridSize="10" guides="1" tooltips="1" connect="1" arrows="1" fold="1" page="1" pageScale="1" pageWidth="827" pageHeight="1169" math="0" shadow="0">
      <root>
        <mxCell id="0" />
        <mxCell id="1" parent="0" />
        <mxCell id="-CQPZJqgbFWsAQTNGpAb-2" value="" style="rounded=0;whiteSpace=wrap;html=1;" parent="1" vertex="1">
          <mxGeometry x="210" width="270" height="650" as="geometry" />
        </mxCell>
        <mxCell id="-CQPZJqgbFWsAQTNGpAb-9" style="edgeStyle=orthogonalEdgeStyle;rounded=0;orthogonalLoop=1;jettySize=auto;html=1;exitX=0.5;exitY=0.5;exitDx=0;exitDy=0;exitPerimeter=0;" parent="1" source="-CQPZJqgbFWsAQTNGpAb-1" target="-CQPZJqgbFWsAQTNGpAb-3" edge="1">
          <mxGeometry relative="1" as="geometry" />
        </mxCell>
        <mxCell id="-CQPZJqgbFWsAQTNGpAb-11" style="edgeStyle=orthogonalEdgeStyle;rounded=0;orthogonalLoop=1;jettySize=auto;html=1;exitX=0.5;exitY=0.5;exitDx=0;exitDy=0;exitPerimeter=0;entryX=0;entryY=0.5;entryDx=0;entryDy=0;" parent="1" source="-CQPZJqgbFWsAQTNGpAb-1" target="-CQPZJqgbFWsAQTNGpAb-6" edge="1">
          <mxGeometry relative="1" as="geometry" />
        </mxCell>
        <mxCell id="-CQPZJqgbFWsAQTNGpAb-12" style="edgeStyle=orthogonalEdgeStyle;rounded=0;orthogonalLoop=1;jettySize=auto;html=1;exitX=0.5;exitY=0.5;exitDx=0;exitDy=0;exitPerimeter=0;" parent="1" source="-CQPZJqgbFWsAQTNGpAb-1" target="-CQPZJqgbFWsAQTNGpAb-8" edge="1">
          <mxGeometry relative="1" as="geometry" />
        </mxCell>
        <mxCell id="-CQPZJqgbFWsAQTNGpAb-1" value="estudiante" style="shape=umlActor;verticalLabelPosition=bottom;verticalAlign=top;html=1;outlineConnect=0;" parent="1" vertex="1">
          <mxGeometry x="100" y="60" width="30" height="60" as="geometry" />
        </mxCell>
        <mxCell id="-CQPZJqgbFWsAQTNGpAb-3" value="inscribirse en examen" style="ellipse;whiteSpace=wrap;html=1;" parent="1" vertex="1">
          <mxGeometry x="255" y="20" width="180" height="90" as="geometry" />
        </mxCell>
        <mxCell id="-CQPZJqgbFWsAQTNGpAb-4" value="comprobar datos del estudiante" style="ellipse;whiteSpace=wrap;html=1;" parent="1" vertex="1">
          <mxGeometry x="255" y="540" width="180" height="90" as="geometry" />
        </mxCell>
        <mxCell id="-CQPZJqgbFWsAQTNGpAb-6" value="darse de baja de curso" style="ellipse;whiteSpace=wrap;html=1;" parent="1" vertex="1">
          <mxGeometry x="255" y="230" width="180" height="90" as="geometry" />
        </mxCell>
        <mxCell id="-CQPZJqgbFWsAQTNGpAb-7" value="realizar inscripcion" style="ellipse;whiteSpace=wrap;html=1;" parent="1" vertex="1">
          <mxGeometry x="255" y="340" width="180" height="90" as="geometry" />
        </mxCell>
        <mxCell id="-CQPZJqgbFWsAQTNGpAb-8" value="inscribirse a curso" style="ellipse;whiteSpace=wrap;html=1;" parent="1" vertex="1">
          <mxGeometry x="255" y="120" width="180" height="90" as="geometry" />
        </mxCell>
        <mxCell id="-CQPZJqgbFWsAQTNGpAb-15" style="edgeStyle=orthogonalEdgeStyle;rounded=0;orthogonalLoop=1;jettySize=auto;html=1;exitX=0.5;exitY=0.5;exitDx=0;exitDy=0;exitPerimeter=0;entryX=1;entryY=0.5;entryDx=0;entryDy=0;" parent="1" source="-CQPZJqgbFWsAQTNGpAb-13" target="-CQPZJqgbFWsAQTNGpAb-4" edge="1">
          <mxGeometry relative="1" as="geometry" />
        </mxCell>
        <mxCell id="-CQPZJqgbFWsAQTNGpAb-13" value="jefa de bedelía" style="shape=umlActor;verticalLabelPosition=bottom;verticalAlign=top;html=1;outlineConnect=0;" parent="1" vertex="1">
          <mxGeometry x="580" y="555" width="30" height="60" as="geometry" />
        </mxCell>
        <mxCell id="-CQPZJqgbFWsAQTNGpAb-18" style="edgeStyle=orthogonalEdgeStyle;rounded=0;orthogonalLoop=1;jettySize=auto;html=1;exitX=0.5;exitY=0.5;exitDx=0;exitDy=0;exitPerimeter=0;entryX=1;entryY=0.5;entryDx=0;entryDy=0;" parent="1" source="-CQPZJqgbFWsAQTNGpAb-16" target="-CQPZJqgbFWsAQTNGpAb-7" edge="1">
          <mxGeometry relative="1" as="geometry" />
        </mxCell>
        <mxCell id="HjaxS4GjU82u6Pb0A8nF-2" style="edgeStyle=orthogonalEdgeStyle;rounded=0;orthogonalLoop=1;jettySize=auto;html=1;exitX=0.5;exitY=0.5;exitDx=0;exitDy=0;exitPerimeter=0;entryX=1;entryY=0.5;entryDx=0;entryDy=0;" edge="1" parent="1" source="-CQPZJqgbFWsAQTNGpAb-16" target="HjaxS4GjU82u6Pb0A8nF-1">
          <mxGeometry relative="1" as="geometry" />
        </mxCell>
        <mxCell id="-CQPZJqgbFWsAQTNGpAb-16" value="estudiante designado" style="shape=umlActor;verticalLabelPosition=bottom;verticalAlign=top;html=1;outlineConnect=0;" parent="1" vertex="1">
          <mxGeometry x="570" y="355" width="30" height="60" as="geometry" />
        </mxCell>
        <mxCell id="HjaxS4GjU82u6Pb0A8nF-1" value="dar de baja del curso al estudiante " style="ellipse;whiteSpace=wrap;html=1;" vertex="1" parent="1">
          <mxGeometry x="255" y="435" width="180" height="90" as="geometry" />
        </mxCell>
      </root>
    </mxGraphModel>
  </diagram>
</mxfile>
